<?xml version="1.0" encoding="UTF-8" standalone="no"?>
<!-- Created with Inkscape (http://www.inkscape.org/) -->

<svg
   version="1.1"
   id="svg1"
   width="598.73346"
   height="679.97473"
   viewBox="0 0 598.73346 679.97473"
   xmlns="http://www.w3.org/2000/svg"
   xmlns:svg="http://www.w3.org/2000/svg">
  <defs
     id="defs1" />
  <g
     id="g1"
     transform="translate(-494.16061,-161.55057)">
    <path
       style="fill:#000000;fill-opacity:0;stroke:#000000;stroke-width:3;stroke-dasharray:none;stroke-opacity:1"
       d="m 973.95356,475.93039 c -2.80851,-1.13333 -43.47811,-54.87225 -63.57723,-84.00801 -21.56981,-31.26768 -38.11261,-64.83108 -43.37363,-88 -13.73298,-60.47852 20.29292,-119.4318 78.70129,-136.35788 56.57821,-16.39571 116.44701,13.12297 137.89991,67.99235 5.3613,13.71261 7.0857,22.32413 7.6823,38.36553 1.737,46.70733 -16.8558,83.39762 -90.1865,177.97078 -19.64382,25.3342 -20.98629,26.52293 -27.14614,24.03723 z"
       id="path16" />
    <path
       style="fill:#000000;fill-opacity:0;stroke:#000000;stroke-width:3;stroke-dasharray:none;stroke-opacity:1"
       d="m 989.24486,438.67238 c 58.43064,-75.49963 75.94544,-105.36318 83.42904,-142.25 1.9432,-9.57797 1.7077,-29.65154 -0.4575,-39 -7.2582,-31.33793 -29.0115,-57.61577 -57.6595,-69.65238 -20.65581,-8.67865 -46.76663,-9.69253 -67.45923,-2.61942 -30.42751,10.40068 -53.60587,34.93304 -62.71327,66.37676 -2.00976,6.9388 -2.27909,10.01462 -2.22366,25.39504 0.056,15.54456 0.35032,18.56152 2.63376,27 5.6313,20.8105 17.68976,44.56604 38.34361,75.5381 11.96274,17.93907 53.07019,73.4619 54.389,73.4619 0.37917,0 5.65216,-6.4125 11.71775,-14.25 z"
       id="path15" />
    <path
       style="fill:#000000;fill-opacity:0;stroke:#000000;stroke-width:3;stroke-dasharray:none;stroke-opacity:1"
       d="m 967.63058,313.3215 c -18.46302,-4.96183 -31.05337,-24.3407 -28.00055,-43.09797 3.43383,-21.09826 24.33148,-36.09296 45.18284,-32.42006 13.12992,2.31279 22.99893,9.71453 28.87943,21.65958 3.151,6.40063 3.4054,7.62839 3.4054,16.4383 0,8.62125 -0.3,10.15427 -3.1744,16.22174 -8.32,17.56225 -27.36742,26.28449 -46.29272,21.19841 z"
       id="path14" />
    <path
       style="fill:#000000;fill-opacity:0;stroke:#000000;stroke-width:3;stroke-dasharray:none;stroke-opacity:1"
       d="m 987.8649,295.32719 c 14.2864,-7.19771 16.5946,-26.54376 4.28709,-35.93118 -9.71637,-7.41104 -22.30767,-6.21327 -30.29314,2.88168 -4.11133,4.68255 -5.63511,9.73273 -4.94733,16.39669 1.50207,14.55365 17.75952,23.3001 30.95338,16.65281 z"
       id="path13" />
    <path
       style="fill:#000000;fill-opacity:0;stroke:#000000;stroke-width:3;stroke-dasharray:none;stroke-opacity:1"
       d="m 820.01288,790.75505 c -1.44017,-2.84203 -4.82275,-7.49801 -7.51685,-10.34662 -2.6941,-2.84861 -4.89836,-5.83997 -4.89836,-6.64746 0,-0.80749 1.4625,-2.16607 3.25,-3.01906 6.60884,-3.15373 23.49999,-16.72215 31.60419,-25.38719 17.04727,-18.22703 31.25494,-43.86658 42.05712,-75.89739 3.33223,-9.88078 5.72786,-18.28627 5.32364,-18.67888 -1.00218,-0.97338 -30.57159,-5.49731 -47.73495,-7.30314 -17.17103,-1.80664 -52.33001,-3.77603 -53.58336,-3.00141 -0.53862,0.33289 -0.91664,24.69898 -0.91664,59.08442 v 58.5179 l -2.92308,2.92308 c -3.62524,3.62524 -6.9683,3.7268 -11.0002,0.33418 l -3.07672,-2.58889 V 699.8925 c 0,-32.36865 -0.3716,-59.08175 -0.82577,-59.36244 -1.11552,-0.68943 -29.28299,1.06228 -47.17423,2.93371 -13.78184,1.44159 -50.97562,7.10089 -51.74866,7.87393 -0.66377,0.66378 8.90862,27.89637 13.91422,39.58468 14.7587,34.4623 36.80726,62.13321 61.80112,77.5603 3.31833,2.04818 6.03332,4.30566 6.03332,5.01662 0,0.71095 -2.42576,3.71841 -5.39059,6.68323 -2.96482,2.96482 -6.34896,7.26917 -7.52032,9.56522 -2.68975,5.27234 -2.9717,5.27507 -23.66973,0.22923 -34.91401,-8.51147 -67.22446,-22.89302 -96.91936,-43.13931 -51.17398,-34.89094 -89.13622,-84.76888 -109.1538,-143.41529 -23.24769,-68.10981 -17.9213,-144.98419 14.58488,-210.5 29.01232,-58.47399 82.65245,-110.06672 138.56892,-133.27986 50.51875,-20.97234 105.98267,-26.82725 162,-17.10112 21.57354,3.74575 24.5,5.22463 24.5,12.38098 0,6.6426 -4.76295,9.94873 -11.65786,8.09213 -9.68993,-2.60923 -39.00432,-7.09213 -46.37652,-7.09213 h -3.96562 v 67.65531 67.6553 l 14.60971,-0.66384 c 18.96843,-0.86189 39.96266,-3.06128 59.77949,-6.26259 15.79548,-2.55169 15.9046,-2.55536 18.5,-0.62336 5.28197,3.93189 5.32552,10.92172 0.0879,14.10692 -4.86057,2.95589 -50.18026,8.81811 -77.09577,9.97254 l -15.38131,0.65972 -0.25934,49.75 -0.25933,49.75 h 60.10798 60.10799 l -0.68559,-11.75 c -0.37708,-6.4625 -1.34566,-18.275 -2.15242,-26.25 -2.86577,-28.32912 -2.88443,-29.47486 -0.51845,-31.84084 2.72371,-2.72372 6.06263,-3.52656 9.39589,-2.25925 4.02736,1.53119 5.54897,4.75531 6.72368,14.24672 1.1397,9.20856 4.01712,47.82698 4.03118,54.10337 l 0.008,3.75 h 66 c 52.30502,0 66.00002,-0.26065 66.00002,-1.25613 0,-0.69087 -0.6577,-6.87837 -1.4615,-13.75 -2.0291,-17.34533 -4.9721,-32.13212 -9.5949,-48.20788 -2.169,-7.5427 -3.9436,-14.60511 -3.9436,-15.69424 0,-1.08912 1.0772,-3.23259 2.3938,-4.76326 1.8811,-2.18686 3.2564,-2.78304 6.4202,-2.78304 5.5753,0 7.4679,2.11277 10.5128,11.73565 19.8103,62.60698 17.7737,125.72113 -6.0091,186.2189 -23.3031,59.27776 -68.56103,110.47941 -125.81772,142.34144 -27.24329,15.16026 -63.23211,27.70098 -93.65387,32.63476 -12.97691,2.10459 -12.45577,2.22764 -15.43092,-3.64353 z"
       id="path12" />
    <path
       style="fill:#000000;fill-opacity:0;stroke:#000000;stroke-width:3;stroke-dasharray:none;stroke-opacity:1"
       d="m 660.04716,360.42238 c 14.04418,-40.38457 29.67305,-66.62549 53.54865,-89.90841 5.97367,-5.82537 10.33036,-10.59152 9.68154,-10.59143 -2.73175,3.7e-4 -29.29614,7.28692 -40.28261,11.04943 -28.09038,9.62005 -55.9772,26.35221 -79.39707,47.63843 -8.62109,7.83568 -29,29.1499 -29,30.33099 0,3.2942 70.26396,27.38288 77.86653,26.69509 2.10927,-0.19083 2.93362,-1.84478 7.58296,-15.2141 z"
       id="path11" />
    <path
       style="fill:#000000;fill-opacity:0;stroke:#000000;stroke-width:3;stroke-dasharray:none;stroke-opacity:1"
       d="m 770.59767,323.29738 v -67.625 l -3.25,0.64206 c -4.30506,0.85049 -16.54834,6.69473 -22.49414,10.7374 -29.98343,20.3864 -52.61429,53.76239 -69.66079,102.73573 -4.00835,11.5157 -4.90706,10.17049 8.40493,12.58061 15.16876,2.74628 35.17744,5.35862 50,6.52801 7.975,0.62917 15.625,1.27503 17,1.43524 1.375,0.1602 6.4375,0.35871 11.25,0.44112 l 8.75,0.14983 z"
       id="path10" />
    <path
       style="fill:#000000;fill-opacity:0;stroke:#000000;stroke-width:3;stroke-dasharray:none;stroke-opacity:1"
       d="m 770.357,458.17238 -0.25933,-49.75 -14.75156,-0.70319 c -20.39101,-0.972 -52.09237,-4.35006 -71.57069,-7.62648 -8.97724,-1.51004 -16.46355,-2.50362 -16.63625,-2.20793 -0.75683,1.2958 -5.57454,24.63279 -7.43963,36.0376 -3.21025,19.63028 -7.10187,57.79389 -7.10187,69.64522 v 4.35478 h 59.00933 59.00934 z"
       id="path9" />
    <path
       style="fill:#000000;fill-opacity:0;stroke:#000000;stroke-width:3;stroke-dasharray:none;stroke-opacity:1"
       d="m 635.957,492.3859 c 1.16934,-27.11957 4.29837,-52.05236 10.17531,-81.07934 1.90595,-9.4137 3.46536,-17.36544 3.46536,-17.67054 0,-0.3051 -1.4625,-0.87048 -3.25,-1.25639 -18.17541,-3.92398 -51.51606,-15.18847 -71.18224,-24.04967 -6.56273,-2.95704 -12.01337,-5.27094 -12.11253,-5.14201 -0.0992,0.12894 -2.89788,4.28443 -6.21937,9.23443 -24.34111,36.27538 -39.62619,81.42304 -42.74288,126.25 l -0.64313,9.25 h 60.91979 60.91979 z"
       id="path8" />
    <path
       style="fill:#000000;fill-opacity:0;stroke:#000000;stroke-width:3;stroke-dasharray:none;stroke-opacity:1"
       d="m 898.54543,614.30822 c 4.58072,-25.77951 7.02323,-47.57571 8.5879,-76.63584 l 0.63265,-11.75 h -60.08415 -60.08416 v 48.39755 48.39756 l 13.75,0.66116 c 27.61474,1.32783 63.35513,5.04078 85.25,8.85634 5.71475,0.99589 7.67226,1.02756 8.22367,0.13304 0.39801,-0.64568 2.07386,-8.77259 3.72409,-18.05981 z"
       id="path7" />
    <path
       style="fill:#000000;fill-opacity:0;stroke:#000000;stroke-width:3;stroke-dasharray:none;stroke-opacity:1"
       d="m 679.59767,631.92706 c 22.1127,-3.81119 73.70997,-9.00468 89.46135,-9.00468 1.36372,0 1.53865,-5.5141 1.53865,-48.5 v -48.5 h -59.12865 -59.12866 l 0.67549,11.25 c 0.89222,14.85981 3.30254,39.68319 5.12195,52.75 1.60095,11.49793 7.29416,41.92285 8.08381,43.20054 0.64477,1.04326 0.10409,1.0916 13.37606,-1.19586 z"
       id="path6" />
    <path
       style="fill:#000000;fill-opacity:0;stroke:#000000;stroke-width:3;stroke-dasharray:none;stroke-opacity:1"
       d="m 588.88957,656.51577 c 16.20899,-6.40406 35.0756,-12.38599 50.7081,-16.07774 4.125,-0.97415 7.8753,-2.11149 8.334,-2.52742 0.4587,-0.41592 -0.31432,-6.54593 -1.71782,-13.62223 -5.8946,-29.72 -9.26376,-56.62892 -10.28142,-82.116 l -0.64884,-16.25 h -60.94912 -60.94912 l 0.67244,9.25 c 3.15144,43.35077 17.63699,85.91288 41.62835,122.31432 l 6.90299,10.4737 4.75427,-2.40513 c 2.61485,-1.32282 12.31063,-5.3906 21.54617,-9.0395 z"
       id="path5" />
    <path
       style="fill:#000000;fill-opacity:0;stroke:#000000;stroke-width:3;stroke-dasharray:none;stroke-opacity:1"
       d="m 1014.6694,659.17238 c 18.8736,-28.99137 32.0996,-63.04014 37.8637,-97.47556 2.2182,-13.25168 4.226,-33.70428 3.4344,-34.98503 -0.2683,-0.43418 -29.8611,-0.78941 -65.76166,-0.78941 h -65.2738 l -1.2284,21.25 c -1.55158,26.84081 -4.35521,51.55378 -8.14519,71.79688 -1.62843,8.6978 -2.96078,16.41031 -2.96078,17.1389 0,0.86218 4.62645,2.51003 13.25,4.71941 24.50046,6.27708 66.24141,20.89232 78.28863,27.4121 1.6288,0.88145 3.0904,1.62065 3.2481,1.64267 0.1577,0.022 3.4359,-4.79746 7.285,-10.70996 z"
       id="path4" />
    <path
       style="fill:#000000;fill-opacity:0;stroke:#000000;stroke-width:3;stroke-dasharray:none;stroke-opacity:1"
       d="m 718.45582,769.19334 c -26.2201,-23.14154 -45.16632,-54.08317 -59.55871,-97.26709 -3.02524,-9.07713 -5.6281,-16.63926 -5.78413,-16.80473 -0.43958,-0.46617 -15.6003,3.48191 -30.45442,7.93079 -13.12576,3.93124 -37.76654,13.18562 -45.3673,17.03868 l -3.80641,1.92959 5.12723,5.91844 c 9.04307,10.43854 29.07688,28.93566 40.95123,37.81005 22.99935,17.18876 45.06825,29.11809 71.03436,38.39759 9.85038,3.52023 29.87075,9.62507 31.85815,9.71456 0.74699,0.0336 -1.05301,-2.06691 -4,-4.66788 z"
       id="path3" />
    <path
       style="fill:#000000;fill-opacity:0;stroke:#000000;stroke-width:3;stroke-dasharray:none;stroke-opacity:1"
       d="m 846.69619,774.41123 c 53.26271,-11.73097 102.53497,-39.71447 139.15148,-79.02916 5.3625,-5.75765 9.75,-10.85503 9.75,-11.32751 0,-3.02547 -46.03809,-19.52407 -74.36794,-26.65112 l -13.05737,-3.2849 -6.14044,18.65192 c -9.92297,30.14158 -19.18674,48.87013 -34.45221,69.65192 -6.82073,9.28548 -21.07706,24.45061 -28.98204,30.82956 -2.475,1.99721 -4.23066,3.6401 -3.90148,3.65087 0.32919,0.0108 5.72919,-1.11045 12,-2.49158 z"
       id="path2" />
    <path
       style="fill:#000000;fill-opacity:0;stroke:#000000;stroke-width:3;stroke-dasharray:none;stroke-opacity:1"
       d="m 768.1623,837.90188 c -6.53981,-2.55337 -12.79023,-8.86253 -16.11116,-16.26254 -7.21086,-16.06793 2.34181,-35.11308 20.2187,-40.31004 6.81589,-1.98143 13.0898,-1.22537 21.04287,2.53584 17.63218,8.3387 21.89433,32.91427 8.16235,47.06414 -8.40413,8.65989 -21.80644,11.46509 -33.31276,6.9726 z"
       id="path1" />
  </g>
</svg>
