<?xml version="1.0" encoding="UTF-8" standalone="no"?>
<svg
   viewBox="0 0 34.5 48.5"
   fill="none"
   version="1.1"
   id="svg2"
   width="34.5"
   height="48.5"
   xmlns="http://www.w3.org/2000/svg"
   xmlns:svg="http://www.w3.org/2000/svg">
  <defs
     id="defs2" />
  <!-- lock shackle -->
  <path
     style="fill:#000000;fill-opacity:0;stroke:#000000;stroke-width:2;stroke-linejoin:miter;stroke-dasharray:none;stroke-opacity:1"
     d="m 7.25,19.25 v -8 c 0,-5.52 4.48,-10 10,-10 5.52,0 10,4.48 10,10 v 8"
     id="path1" />
  <path
     style="fill:#000000;fill-opacity:0;stroke:#000000;stroke-width:2;stroke-linejoin:miter;stroke-dasharray:none;stroke-opacity:1"
     d="m 9.9392805,18.243153 v -6.347661 c 0,-4.3798859 3.2570905,-7.9345762 7.2702925,-7.9345762 4.013201,0 7.270292,3.5546903 7.270292,7.9345762 v 6.347661"
     id="path1-8" />
  <!-- lock body -->
  <rect
     x="1.25"
     y="19.25"
     width="32"
     height="28"
     rx="6"
     stroke="#2F55CC"
     stroke-width="2.6"
     stroke-linecap="round"
     stroke-linejoin="round"
     id="rect1"
     style="fill:#000000;fill-opacity:0;stroke:#000000;stroke-width:2;stroke-linejoin:miter;stroke-dasharray:none;stroke-opacity:1" />
  <!-- location pin (centered, no overlap with borders) -->
  <path
     style="fill:#000000;fill-opacity:0;stroke:#000000;stroke-width:1.90294;stroke-linejoin:miter;stroke-dasharray:none;stroke-opacity:1"
     d="m 17.40912,23.832922 c -3.834387,0 -6.946352,3.167555 -6.946352,7.070435 0,5.090713 6.946352,11.312696 6.946352,11.312696 0,0 6.946352,-6.221983 6.946352,-11.312696 0,-3.90288 -3.111965,-7.070435 -6.946352,-7.070435 z"
     id="path2" />
  <ellipse
     style="fill:#000000;fill-opacity:0;stroke:#000000;stroke-width:2.35644;stroke-linejoin:miter;stroke-dasharray:none"
     id="path3"
     cx="17.420441"
     cy="30.59444"
     rx="3.4712677"
     ry="3.28304" />
</svg>
