<?xml version="1.0" encoding="UTF-8" standalone="no"?>
<!-- Created with Inkscape (http://www.inkscape.org/) -->

<svg
   version="1.1"
   id="svg1"
   width="284.0188"
   height="321.92569"
   viewBox="0 0 284.0188 321.92569"
   sodipodi:docname="tab_notifications.svg"
   inkscape:version="1.4.3 (0d15f75, 2025-12-25)"
   xmlns:inkscape="http://www.inkscape.org/namespaces/inkscape"
   xmlns:sodipodi="http://sodipodi.sourceforge.net/DTD/sodipodi-0.dtd"
   xmlns="http://www.w3.org/2000/svg"
   xmlns:svg="http://www.w3.org/2000/svg">
  <sodipodi:namedview
     id="namedview1"
     pagecolor="#ffffff"
     bordercolor="#000000"
     borderopacity="0.25"
     inkscape:showpageshadow="2"
     inkscape:pageopacity="0.0"
     inkscape:pagecheckerboard="0"
     inkscape:deskcolor="#d1d1d1"
     inkscape:zoom="2.4011753"
     inkscape:cx="141.80556"
     inkscape:cy="160.96284"
     inkscape:window-width="1920"
     inkscape:window-height="991"
     inkscape:window-x="-9"
     inkscape:window-y="-9"
     inkscape:window-maximized="1"
     inkscape:current-layer="g1" />
  <defs
     id="defs1" />
  <g
     id="g1"
     transform="translate(-60.702709,-22.954989)">
    <path
       style="fill:#000000;fill-opacity:0;stroke:#000000;stroke-width:5;stroke-dasharray:none;stroke-opacity:1"
       d="m 136.53698,170.35368 c -1.62618,-32.65032 22.39971,-64.03646 52.94608,-74.304417 11.99676,-7.662346 17.55608,8.520897 2.88054,9.530247 -26.95325,7.90216 -45.55473,35.18674 -47.34085,62.75053 0.34834,4.58295 -6.30512,5.06145 -8.48577,2.02364 z"
       id="path9" />
    <path
       id="path8"
       style="fill:#000000;fill-opacity:0;stroke:#000000;stroke-width:4.34392;stroke-dasharray:none;stroke-opacity:1"
       d="m 273.17056,57.344771 c -30.05611,1.265253 -55.13673,31.1863 -49.80502,60.435749 7.70593,30.88951 30.1985,55.33102 50.37011,79.28796 10.19679,0.92609 15.93616,-14.80859 23.11879,-20.85713 14.09535,-19.62023 31.65431,-39.58301 33.25088,-64.58974 2.02887,-27.789706 -22.67269,-53.025672 -50.86478,-54.139379 -2.04044,-0.179059 -4.06623,-0.22181 -6.06998,-0.13746 z m 3.86287,20.486665 c 11.86809,0.260162 23.65305,6.633251 27.76488,18.299029 7.56139,17.339195 -5.26071,39.091565 -24.76596,40.545855 -4.27173,0.14308 -8.8031,0.26328 -12.91286,-1.08124 -19.6393,-5.34099 -27.95842,-31.87571 -14.35736,-46.890843 5.75931,-7.578703 15.04056,-11.07515 24.2713,-10.872801 z" />
    <path
       id="path3"
       style="fill:#000000;fill-opacity:0;stroke:#000000;stroke-width:5;stroke-dasharray:none;stroke-opacity:1"
       d="m 195.58398,24.476562 c -2.47874,0.0968 -4.96413,0.523486 -7.40039,1.320313 -16.44422,4.628392 -22.80179,22.906476 -21.44531,38.474609 -23.17361,7.92707 -43.28417,24.269795 -56.0332,45.154296 -18.892311,28.26848 -13.924065,63.15858 -15.228518,95.2207 1.44929,22.59257 -7.026613,45.51612 -23.419921,61.25 -13.700036,7.63517 -13.34228,31.07678 2.503906,35.79102 25.856743,0.21969 51.735443,-0.5836 77.572263,0.78125 3.81812,18.24891 17.52108,35.08006 36.07617,39.51563 26.36105,7.08521 53.87644,-13.95752 57.14844,-40.32422 21.54627,-0.0645 43.09491,0.12959 64.64063,-0.0977 18.76071,6.36969 36.01272,-15.78325 21.93554,-31.14844 -13.10291,-9.33637 -22.2429,-23.47501 -26.30664,-38.96679 -4.25707,-7.82092 0.0566,-35.39597 -11.77343,-17.53321 -2.05871,9.84325 3.171,22.09733 6.70898,32.06641 4.30467,12.36674 13.62249,21.17334 22.8125,29.60937 12.47156,17.92049 -13.23785,18.51905 -24.75391,16.90039 -72.08332,0.82079 -144.24271,0.36067 -216.285152,-0.0645 -21.931365,-4.2615 -0.521084,-23.59636 6.84375,-31.8418 C 110.79247,232.30437 104.18445,195.18223 105.47656,162.125 104.58477,115.35949 144.21128,72.550148 190.67969,69.103516 203.71341,68.116761 224.46083,77.091318 227.63672,57.5 229.96675,39.307377 212.93521,23.798942 195.58398,24.476562 Z m 33.35355,278.163948 c 7.32111,9.00931 -5.72679,23.56471 -16.53323,27.20129 -20.72743,8.42117 -44.21276,-4.36703 -46.83991,-26.61337 24.01799,0.47509 40.31173,-0.48781 63.37314,-0.58792 z" />
  </g>
</svg>
